<?xml version="1.0" encoding="UTF-8"?><svg id="Layer_1" xmlns="http://www.w3.org/2000/svg" viewBox="0 0 608.85 402.78"><defs><style>.cls-1{fill:#fff;}.cls-2{fill:#c9a389;}.cls-3{fill:#1e1e1e;}</style></defs><rect class="cls-3" width="608.85" height="402.78"/><path class="cls-1" d="m143.88,196.56c-11.4,0-19.92,8.63-19.92,19.92s8.41,19.92,19.92,19.92,19.92-8.63,19.92-19.92-8.57-19.92-19.92-19.92Zm0,34.95c-8.68,0-14.49-6.62-14.49-15.03s5.81-15.03,14.49-15.03,14.49,6.84,14.49,15.03-5.81,15.03-14.49,15.03Z"/><polygon class="cls-1" points="189.75 235.74 195.02 235.74 195.02 217.78 210.16 217.78 210.16 212.84 195.02 212.84 195.02 202.15 221.01 202.15 221.01 197.21 189.75 197.21 189.75 235.74"/><polygon class="cls-1" points="245.28 235.74 250.55 235.74 250.55 217.78 265.69 217.78 265.69 212.84 250.55 212.84 250.55 202.15 276.55 202.15 276.55 197.21 245.28 197.21 245.28 235.74"/><path class="cls-1" d="m318.94,213.49l-7.54-.87c-4.78-.6-7.38-2.33-7.38-5.54,0-3.47,3.09-5.7,9.33-5.7,7.38,0,10.53,3.04,11.83,5.65h5.48c-1.3-4.83-5.75-10.47-17.31-10.47-8.85,0-14.6,4.23-14.6,10.53,0,6.68,5.21,10.09,12.16,10.8l7.6.81c4.61.6,7.81,1.95,7.81,6.51,0,3.69-3.69,6.41-10.42,6.41-8.25,0-11.56-3.96-12.86-6.89h-5.64c1.74,5.64,6.57,11.72,18.51,11.72,10.64,0,15.68-5.26,15.68-11.5,0-7.98-6.13-10.75-12.65-11.45Z"/><rect class="cls-1" x="357.65" y="197.21" width="5.26" height="38.53"/><path class="cls-1" d="m406.34,197.21h-15.2v38.53h15.2c12.43,0,20.19-7.76,20.19-19.27s-7.82-19.27-20.19-19.27Zm0,33.7h-9.93v-28.87h9.93c9.12,0,14.76,5.37,14.76,14.44s-5.64,14.44-14.76,14.44Z"/><polygon class="cls-1" points="457.75 230.86 457.75 217.73 472.68 217.73 472.68 212.84 457.75 212.84 457.75 202.1 482.72 202.1 482.72 197.21 452.54 197.21 452.54 235.74 484.89 235.74 484.89 230.86 457.75 230.86"/><path class="cls-1" d="m287.65,267.85l-17.8,38.75h5.21l4.29-9.28h20.51l4.29,9.28h5.54l-17.86-38.75h-4.18Zm-6.13,24.69l8.09-17.58,8.09,17.58h-16.17Z"/><rect class="cls-1" x="333.74" y="268.06" width="5.26" height="38.53"/><path class="cls-2" d="m319.98,93.14c-3.06,0-6.02.37-8.87,1.09-2.32.59-4.56,1.39-6.69,2.42-2.13-1.04-4.37-1.84-6.69-2.42-2.85-.72-5.81-1.09-8.87-1.09-20.03,0-36.34,16.3-36.34,36.34s16.3,36.34,36.34,36.34c3.06,0,6.05-.37,8.9-1.09-4.02-2.53-7.57-5.73-10.5-9.46-13.51-.83-24.24-12.07-24.24-25.79s10.74-24.96,24.24-25.79c.53-.03,1.07-.05,1.6-.05,1.73,0,3.44.16,5.09.51,3.86.77,7.43,2.42,10.47,4.72,1.47,1.09,2.8,2.34,3.97,3.7.35.37.67.77.96,1.17.61.8,1.2,1.62,1.71,2.5.27.43.51.88.75,1.33.32.59.61,1.2.88,1.84.32.77.64,1.57.88,2.37.13.4.24.83.35,1.23.13.51.24,1.04.35,1.57.16.8.29,1.6.35,2.42.05.83.11,1.62.11,2.48s-.05,1.65-.11,2.48-.19,1.63-.35,2.42c-.11.53-.21,1.07-.35,1.57-.11.4-.21.83-.35,1.23-.24.8-.56,1.6-.88,2.37-.27.64-.56,1.25-.88,1.84-.24.45-.48.91-.75,1.33-.51.88-1.09,1.71-1.71,2.5-.29.4-.61.8-.96,1.17-1.17,1.36-2.5,2.61-3.97,3.7-1.47-1.09-2.8-2.34-3.97-3.7-3.94-4.53-6.34-10.44-6.34-16.92s2.4-12.39,6.34-16.92c-3.04-2.08-6.63-3.36-10.5-3.57-4,5.83-6.34,12.89-6.34,20.49s2.34,14.65,6.34,20.49c1.2,1.73,2.53,3.36,4,4.85,2.98,3.09,6.53,5.65,10.47,7.49,2.1,1.01,4.34,1.84,6.66,2.42,2.85.72,5.83,1.09,8.9,1.09,7.67,0,15.03-2.37,21.23-6.85l-6.15-8.53c-3.97,2.88-8.6,4.53-13.48,4.82-.53.03-1.07.05-1.6.05-1.73,0-3.44-.16-5.09-.51,1.47-1.49,2.8-3.12,4-4.85,4-5.83,6.34-12.89,6.34-20.49s-2.34-14.65-6.34-20.49c-1.2-1.73-2.53-3.36-4-4.85,1.65-.35,3.36-.51,5.09-.51.53,0,1.07.03,1.6.05,13.48.83,24.24,12.07,24.24,25.79v35.67h10.5v-35.67c0-20.03-16.3-36.34-36.34-36.34Z"/></svg>