<?xml version="1.0" encoding="UTF-8"?>
<svg id="Layer_2" data-name="Layer 2" xmlns="http://www.w3.org/2000/svg" viewBox="0 0 68.98 70.39">
  <defs>
    <style>
      .cls-1 {
        fill: #63599d;
      }
    </style>
  </defs>
  <g id="Layer_1-2" data-name="Layer 1">
    <g>
      <path class="cls-1" d="M56.68,18.46c-2.66-1.16-5.43-1.71-8.15-1.71-1.22,0-2.45.11-3.65.33v6.41s0,0,0,0c0,0,0,0,0,0h0c.05,0,.11-.02.16-.03.54-.13,1.09-.24,1.65-.32-.02,0-.03,0-.05,0,.02,0,.04,0,.05,0,.02,0,.03,0,.05,0-.02,0-.04,0-.05,0,.05,0,.1,0,.15-.02.56-.07,1.14-.11,1.72-.11,1.88,0,3.79.38,5.62,1.17,7.19,3.13,10.49,11.53,7.36,18.71-.29.66-.63,1.3-1,1.9h0c-.19.3-.38.6-.6.88-.41.55-.87,1.08-1.35,1.57-.23.23-.47.47-.72.68-.75.66-1.56,1.23-2.43,1.71-.26,1.65-.71,3.31-1.35,4.93-.37.93-.78,1.82-1.25,2.67.49-.11.97-.23,1.45-.38.47-.13.93-.3,1.39-.47,2.28-.85,4.42-2.11,6.28-3.72.37-.32.73-.66,1.08-1.01.7-.71,1.35-1.47,1.95-2.27.24-.32.47-.66.7-1,.11-.17.21-.33.31-.5.17-.28.33-.55.48-.85.3-.54.56-1.08.81-1.65,4.51-10.35-.25-22.43-10.6-26.94Z"/>
      <path class="cls-1" d="M18.46,40.56c1.1-2.8,3-5.05,5.32-6.61.16-.11.32-.21.49-.31.09-.05.17-.1.26-.15,0,0-.01,0-.01,0,.03-.02.06-.04.1-.05.05-.03.1-.06.15-.08h0s0,0,0,0h0s0-.01,0-.01c.3-1.93.87-3.85,1.68-5.73l.8-1.84c-1.98.44-3.9,1.18-5.66,2.18-.44.24-.87.51-1.29.79-3.35,2.24-6.08,5.48-7.66,9.51L0,70.39h6.73l10.7-27.23,1.03-2.6Z"/>
      <path class="cls-1" d="M41.88,28c-.19-.12-.39-.22-.57-.33h-.01c-.07-.04-.13-.07-.19-.11-.62-.32-1.25-.61-1.91-.87-.47-.18-.94-.34-1.4-.48h0l1.43-3.3L49.2,0h-6.82l-9.47,21.73s0,0,0,0l-1.55,3.55h0l-1.64,3.76c-.38.88-.7,1.77-.94,2.67-.01.05-.03.09-.04.14-.36,1.3-.57,2.6-.66,3.91,0,0,0,0,0,0,0,0,0,0,0,0-.54,7.43,3.06,14.75,9.52,18.8,0,0,0,0,0,0,0,0,0,0,0,0,.36.22.73.43,1.11.64.15.08.29.16.44.23.38.2.76.39,1.16.56.13.06.27.1.4.16.15.06.3.13.45.18-.49.46-1.01.85-1.57,1.23-.45.28-.89.55-1.35.8h-.01c-.11.06-.21.12-.32.16-.05.02-.11.05-.15.07s-.11.05-.15.07c-.04.01-.06.02-.09.05-.09.04-.2.08-.3.13-.14.06-.26.12-.4.16h-.01c-.33.13-.66.23-.99.34-.5.16-1.01.29-1.52.38-.22.05-.45.08-.67.12-.7.09-1.41.14-2.15.13h-.01c-.14,0-.26-.01-.41-.02-.35-.01-.72-.04-1.07-.07-.49-.06-.99-.15-1.47-.26-.69-.15-1.37-.36-2.05-.63-3.08-1.21-5.51-3.41-7.06-6.09l-4.53,4.54c2.22,3.23,5.4,5.84,9.31,7.37,2.45.97,4.98,1.43,7.47,1.43,5.02,0,9.88-1.88,13.61-5.18h.01c.28-.25.55-.49.81-.76.81-.78,1.55-1.65,2.21-2.59h0s0,0,0,0c0,0,0,0,0,0,0,0,0,0,0,0,.33-.46.64-.94.93-1.43.06-.1.12-.19.17-.29.3-.53.59-1.07.85-1.64.17-.35.32-.71.47-1.07.14-.36.26-.72.38-1.07s.22-.7.32-1.07c.18-.64.33-1.29.43-1.95.12-.64.19-1.3.23-1.95.56-7.74-3.35-15.31-10.23-19.23ZM45.81,47.51h-.01c-.14,1.15-.43,2.31-.88,3.45h0s0,.01,0,.02c0,0,0,0,0,0-.31-.08-.62-.18-.93-.28-.04-.01-.08-.02-.12-.03-.02,0-.04-.02-.06-.02-.33-.12-.65-.24-.97-.38-.43-.19-.84-.39-1.24-.61-5.12-2.84-7.9-8.53-7.2-14.18,0,0,0,0,0,0,0,0,0,0,0,0,.04-.3.11-.6.17-.9.16-.86.38-1.72.72-2.56,0,0,0,0,0,0h0c.54.15,1.08.32,1.61.53.61.23,1.17.5,1.71.81,5.1,2.84,7.91,8.5,7.2,14.18Z"/>
    </g>
  </g>
</svg>