<?xml version="1.0" encoding="UTF-8"?>
<svg id="Layer_2" data-name="Layer 2" xmlns="http://www.w3.org/2000/svg" viewBox="0 0 543.99 352.57">
  <defs>
    <style>
      .cls-1 {
        fill: #fff;
      }

      .cls-2 {
        fill: #63599d;
      }
    </style>
  </defs>
  <g id="Layer_1-2" data-name="Layer 1">
    <rect width="543.99" height="352.57"/>
    <g>
      <g>
        <path class="cls-1" d="M136.74,208.8h-10.79v20.76h2.84v-8.66h7.95c4.59,0,6.99-2.46,6.99-6.11s-2.4-5.99-6.99-5.99ZM136.83,218.28h-8.04v-6.84h8.04c2.69,0,3.98,1.23,3.98,3.42,0,1.99-1.29,3.42-3.98,3.42Z"/>
        <polygon class="cls-1" points="157.38 208.8 154.55 208.8 154.55 229.57 170.8 229.57 170.8 226.9 157.38 226.9 157.38 208.8"/>
        <path class="cls-1" d="M188.32,208.69l-9.59,20.88h2.81l2.31-5h11.05l2.31,5h2.98l-9.62-20.88h-2.25ZM185.02,221.99l4.36-9.47,4.36,9.47h-8.71Z"/>
        <polygon class="cls-1" points="205.84 211.44 214.46 211.44 214.46 229.57 217.3 229.57 217.3 211.44 225.92 211.44 225.92 208.8 205.84 208.8 205.84 211.44"/>
        <polygon class="cls-1" points="236.16 229.57 239 229.57 239 219.89 247.15 219.89 247.15 217.23 239 217.23 239 211.47 253 211.47 253 208.8 236.16 208.8 236.16 229.57"/>
        <path class="cls-1" d="M271.83,208.45c-6.14,0-10.73,4.65-10.73,10.73s4.53,10.73,10.73,10.73,10.73-4.65,10.73-10.73-4.62-10.73-10.73-10.73ZM271.83,227.28c-4.68,0-7.81-3.57-7.81-8.1s3.13-8.1,7.81-8.1,7.81,3.68,7.81,8.1-3.13,8.1-7.81,8.1Z"/>
        <path class="cls-1" d="M311.51,214.68c0-3.89-2.37-5.88-6.84-5.88h-11.02v20.76h2.84v-9.24h7.84l4.97,9.24h3.01l-5.03-9.53c2.78-.7,4.24-2.57,4.24-5.35ZM296.49,217.72v-6.29h8.1c2.69,0,4.01.99,4.01,3.25,0,2.11-1.32,3.04-4.01,3.04h-8.1Z"/>
        <polygon class="cls-1" points="334.59 225.65 327.36 208.8 322.98 208.8 322.98 229.57 325.61 229.57 325.61 211.38 333.48 229.68 335.43 229.68 343.36 211.26 343.36 229.57 346.05 229.57 346.05 208.8 341.81 208.8 334.59 225.65"/>
        <path class="cls-1" d="M365.49,215.88c-1.14,0-2.05.23-2.75.61l6.05-7.69h-3.36l-4.85,6.35c-1.84,2.37-3.36,4.53-3.36,7.69,0,4.09,2.69,7.08,7.43,7.08s7.49-3.1,7.49-7.08c0-4.3-2.78-6.96-6.64-6.96ZM364.65,227.34c-2.92,0-4.59-2.02-4.59-4.5s1.78-4.56,4.59-4.56c3.04,0,4.65,1.99,4.65,4.56s-1.61,4.5-4.65,4.5Z"/>
        <rect class="cls-1" x="383.33" y="208.8" width="2.84" height="20.76"/>
        <polygon class="cls-1" points="408.89 218.92 417.66 208.8 414.18 208.8 407.16 216.93 400.17 208.8 396.43 208.8 405.32 219.04 396.26 229.57 399.65 229.57 407.05 221.03 414.47 229.57 418.04 229.57 408.89 218.92"/>
      </g>
      <g>
        <path class="cls-2" d="M294.03,141.11c-2.66-1.16-5.43-1.71-8.15-1.71-1.22,0-2.45.11-3.65.33v6.41s0,0,0,0c0,0,0,0,0,0h0c.05,0,.11-.02.16-.03.54-.13,1.09-.24,1.65-.32-.02,0-.03,0-.05,0,.02,0,.04,0,.05,0,.02,0,.03,0,.05,0-.02,0-.04,0-.05,0,.05,0,.1,0,.15-.02.56-.07,1.14-.11,1.72-.11,1.88,0,3.79.38,5.62,1.17,7.19,3.13,10.49,11.53,7.36,18.71-.29.66-.63,1.3-1,1.9h0c-.19.3-.38.6-.6.88-.41.55-.87,1.08-1.35,1.57-.23.23-.47.47-.72.68-.75.66-1.56,1.23-2.43,1.71-.26,1.65-.71,3.31-1.35,4.93-.37.93-.78,1.82-1.25,2.67.49-.11.97-.23,1.45-.38.47-.13.93-.3,1.39-.47,2.28-.85,4.42-2.11,6.28-3.72.37-.32.73-.66,1.08-1.01.7-.71,1.35-1.47,1.95-2.27.24-.32.47-.66.7-1,.11-.17.21-.33.31-.5.17-.28.33-.55.48-.85.3-.54.56-1.08.81-1.65,4.51-10.35-.25-22.43-10.6-26.94Z"/>
        <path class="cls-2" d="M255.81,163.21c1.1-2.8,3-5.05,5.32-6.61.16-.11.32-.21.49-.31.09-.05.17-.1.26-.15,0,0-.01,0-.01,0,.03-.02.06-.04.1-.05.05-.03.1-.06.15-.08h0s0,0,0,0h0s0-.01,0-.01c.3-1.93.87-3.85,1.68-5.73l.8-1.84c-1.98.44-3.9,1.18-5.66,2.18-.44.24-.87.51-1.29.79-3.35,2.24-6.08,5.48-7.66,9.51l-12.64,32.13h6.73l10.7-27.23,1.03-2.6Z"/>
        <path class="cls-2" d="M279.23,150.65c-.19-.12-.39-.22-.57-.33h-.01c-.07-.04-.13-.07-.19-.11-.62-.32-1.25-.61-1.91-.87-.47-.18-.94-.34-1.4-.48h0l1.43-3.3,9.98-22.92h-6.82l-9.47,21.73s0,0,0,0l-1.55,3.55h0l-1.64,3.76c-.38.88-.7,1.77-.94,2.67-.01.05-.03.09-.04.14-.36,1.3-.57,2.6-.66,3.91,0,0,0,0,0,0,0,0,0,0,0,0-.54,7.43,3.06,14.75,9.52,18.8,0,0,0,0,0,0,0,0,0,0,0,0,.36.22.73.43,1.11.64.15.08.29.16.44.23.38.2.76.39,1.16.56.13.06.27.1.4.16.15.06.3.13.45.18-.49.46-1.01.85-1.57,1.23-.45.28-.89.55-1.35.8h-.01c-.11.06-.21.12-.32.16-.05.02-.11.05-.15.07s-.11.05-.15.07c-.04.01-.06.02-.09.05-.09.04-.2.08-.3.13-.14.06-.26.12-.4.16h-.01c-.33.13-.66.23-.99.34-.5.16-1.01.29-1.52.38-.22.05-.45.08-.67.12-.7.09-1.41.14-2.15.13h-.01c-.14,0-.26-.01-.41-.02-.35-.01-.72-.04-1.07-.07-.49-.06-.99-.15-1.47-.26-.69-.15-1.37-.36-2.05-.63-3.08-1.21-5.51-3.41-7.06-6.09l-4.53,4.54c2.22,3.23,5.4,5.84,9.31,7.37,2.45.97,4.98,1.43,7.47,1.43,5.02,0,9.88-1.88,13.61-5.18h.01c.28-.25.55-.49.81-.76.81-.78,1.55-1.65,2.21-2.59h0s0,0,0,0c0,0,0,0,0,0,0,0,0,0,0,0,.33-.46.64-.94.93-1.43.06-.1.12-.19.17-.29.3-.53.59-1.07.85-1.64.17-.35.32-.71.47-1.07.14-.36.26-.72.38-1.07s.22-.7.32-1.07c.18-.64.33-1.29.43-1.95.12-.64.19-1.3.23-1.95.56-7.74-3.35-15.31-10.23-19.23ZM283.16,170.16h-.01c-.14,1.15-.43,2.31-.88,3.45h0s0,.01,0,.02c0,0,0,0,0,0-.31-.08-.62-.18-.93-.28-.04-.01-.08-.02-.12-.03-.02,0-.04-.02-.06-.02-.33-.12-.65-.24-.97-.38-.43-.19-.84-.39-1.24-.61-5.12-2.84-7.9-8.53-7.2-14.18,0,0,0,0,0,0,0,0,0,0,0,0,.04-.3.11-.6.17-.9.16-.86.38-1.72.72-2.56,0,0,0,0,0,0h0c.54.15,1.08.32,1.61.53.61.23,1.17.5,1.71.81,5.1,2.84,7.91,8.5,7.2,14.18Z"/>
      </g>
    </g>
  </g>
</svg>